<svg xmlns="http://www.w3.org/2000/svg" viewBox="0 0 64 80" x="0px" y="0px">
    <g>
        <path d="M17.707,18.293l-3-3A1,1,0,0,0,14,15H7.414L3.707,11.293,2.293,12.707l4,4A1,1,0,0,0,7,17h6.586l2.707,2.707Z"/><path d="M38.49,26.1,32,27.7,25.51,26.1l-3.585-3.585A1.96,1.96,0,0,0,22,22a2,2,0,1,0-2,2,1.96,1.96,0,0,0,.511-.075l3.782,3.782a1,1,0,0,0,.467.264L29.4,29.116,22.289,36.3a1,1,0,0,0,0,1.411A6.6,6.6,0,0,0,25.186,39.4l-2.392,2.392h0l-2.677,2.676-5.181-4.987A2,2,0,1,0,13,41a1.973,1.973,0,0,0,.541-.084l5.191,5a3.382,3.382,0,0,0,.268,4.5l0,0,1.29,1.29,3,3,3,3L27.586,59a3.387,3.387,0,0,0,1.679.915c.022.005.042.015.064.019a3.444,3.444,0,0,0,1.342,0c.026,0,.05-.017.076-.023a3.328,3.328,0,0,0,.561-.17c.02-.008.038-.022.058-.031a3.352,3.352,0,0,0,.528-.283c.043-.029.08-.069.122-.1a3.3,3.3,0,0,0,.339-.279A3.409,3.409,0,0,0,34.71,60H35a2.732,2.732,0,0,0,1.917-.793,3.1,3.1,0,0,0,.9-2.1,3.053,3.053,0,0,0,2.1-.9,3.1,3.1,0,0,0,.9-2.1,3.053,3.053,0,0,0,2.1-.9,3.1,3.1,0,0,0,.9-2.1,3.053,3.053,0,0,0,2.1-.9,3.131,3.131,0,0,0-.021-4.435l-.13-.124,5.941-5.941,5-5,5-5-1.414-1.414L56,32.586,45.414,22,61.707,5.707,60.293,4.293l-17,17ZM31.43,29.9l7.262-1.8L43.586,33l-2.293,2.293a6.08,6.08,0,0,1-8.586,0,1,1,0,0,0-1.414,0l-1,1a4.664,4.664,0,0,1-5.808.627ZM25,42.878a1.113,1.113,0,0,1,.793.329,1.125,1.125,0,0,1,0,1.586L21,49.586,20.416,49a1.414,1.414,0,0,1,0-2l3.791-3.79A1.113,1.113,0,0,1,25,42.878Zm2.207,3.329a1.148,1.148,0,0,1,1.586,0,1.125,1.125,0,0,1,0,1.586L24,52.586,22.414,51Zm3,3a1.148,1.148,0,0,1,1.586,0,1.125,1.125,0,0,1,0,1.586L27,55.586,25.414,54Zm4.586,3a1.125,1.125,0,0,1,0,1.586l-.145.145-.005,0-1.784,1.784L31,57.584a1.32,1.32,0,0,1-.329.214,1.112,1.112,0,0,1-1.211.088c-.023-.009-.04-.03-.062-.04a1.348,1.348,0,0,1-.4-.263L28.414,57l4.793-4.793A1.148,1.148,0,0,1,34.793,52.207Zm.71,5.585A.717.717,0,0,1,35,58h-.29a1.408,1.408,0,0,1-.926-.37l1.571-1.571.139.14,0,0,.006.006A1.122,1.122,0,0,1,35.5,57.792ZM44.494,48.8a1.087,1.087,0,0,1-.784.319,1.1,1.1,0,0,1-.793-.327l-.85-.85h0l-.65-.651-.6.6-.039-.057.038.057L40,48.708,41.494,50.2l0,0,.006.006a1.125,1.125,0,0,1-.009,1.594,1.087,1.087,0,0,1-.784.319,1.1,1.1,0,0,1-.793-.327l-.85-.85h0l-.65-.651-.6.6-.039-.057.038.057L37,51.708,38.494,53.2l0,0,.006.006a1.125,1.125,0,0,1-.009,1.594,1.087,1.087,0,0,1-.784.319,1.1,1.1,0,0,1-.793-.327l-.23-.23a3.064,3.064,0,0,0-2.575-4.645,3.039,3.039,0,0,0-3-3,3.039,3.039,0,0,0-3-3,3.1,3.1,0,0,0-.9-2.125,2.951,2.951,0,0,0-.955-.63L27.817,39.6a6.619,6.619,0,0,0,3.89-1.891l.337-.336a8.022,8.022,0,0,0,3.837,1.613L43.644,46.4l.859.81A1.125,1.125,0,0,1,44.494,48.8Zm-.176-4.533-5.643-5.382a8.026,8.026,0,0,0,4.032-2.179L45,34.414,49.586,39ZM54.586,34,51,37.586l-5.293-5.293L40.414,27,44,23.414Z"/><rect x="50" y="33" width="2" height="2"/><path d="M4,7a1.96,1.96,0,0,0,.511-.075l5.782,5.782,1.414-1.414L5.925,5.511A1.96,1.96,0,0,0,6,5,2,2,0,1,0,4,7Z"/><path d="M4,21a1.96,1.96,0,0,0,.511-.075l5.782,5.782A1,1,0,0,0,11,27h5.586l3.489,3.489A1.96,1.96,0,0,0,20,31a2,2,0,1,0,2-2,1.96,1.96,0,0,0-.511.075l-3.782-3.782A1,1,0,0,0,17,25H11.414L5.925,19.511A1.96,1.96,0,0,0,6,19a2,2,0,1,0-2,2Z"/><path d="M4,29a1.96,1.96,0,0,0,.511-.075L6,30.414V33a1,1,0,0,0,.293.707l3,3,1.414-1.414L8,32.586V30a1,1,0,0,0-.293-.707L5.925,27.511A1.96,1.96,0,0,0,6,27a2,2,0,1,0-2,2Z"/><rect x="11" y="18.172" width="2" height="5.657" transform="translate(-11.335 14.636) rotate(-45)"/><path d="M14,29a2,2,0,0,0,0,4,1.96,1.96,0,0,0,.511-.075l2.782,2.782,1.414-1.414-2.782-2.782A1.96,1.96,0,0,0,16,31,2,2,0,0,0,14,29Z"/>
        <rect x="18.5" y="37.379" width="2" height="4.243" transform="translate(-22.219 25.358) rotate(-45)"/>
    </g>
</svg>